<?xml version="1.0" standalone="no"?>
<!DOCTYPE svg PUBLIC "-//W3C//DTD SVG 20010904//EN"
 "http://www.w3.org/TR/2001/REC-SVG-20010904/DTD/svg10.dtd">
<svg version="1.0" xmlns="http://www.w3.org/2000/svg"
 width="427.000000pt" height="427.000000pt" viewBox="0 0 427.000000 427.000000"
 preserveAspectRatio="xMidYMid meet">

<g transform="translate(0.000000,427.000000) scale(0.100000,-0.100000)"
fill="#000000" stroke="none">
<path d="M0 2135 l0 -2135 2135 0 2135 0 0 2135 0 2135 -2135 0 -2135 0 0
-2135z m2188 1658 c-27 -2 -69 -2 -95 0 -27 2 -5 3 47 3 52 0 74 -1 48 -3z
m140 -10 c-10 -2 -26 -2 -35 0 -10 3 -2 5 17 5 19 0 27 -2 18 -5z m75 -10 c-7
-2 -19 -2 -25 0 -7 3 -2 5 12 5 14 0 19 -2 13 -5z m60 -10 c-7 -2 -21 -2 -30
0 -10 3 -4 5 12 5 17 0 24 -2 18 -5z m44 -9 c-3 -3 -12 -4 -19 -1 -8 3 -5 6 6
6 11 1 17 -2 13 -5z m91 -20 c298 -86 602 -283 799 -518 288 -343 422 -756
392 -1203 -38 -552 -367 -1066 -844 -1322 -33 -18 -49 -24 -35 -14 13 10 36
28 50 40 l25 22 -26 1 c-14 0 -59 -14 -99 -30 -40 -17 -76 -30 -79 -30 -3 0
37 23 89 51 151 81 246 153 381 288 276 277 425 600 459 991 24 289 -32 577
-166 845 -74 150 -169 279 -294 405 -118 117 -224 197 -368 277 -53 29 -95 53
-92 53 3 0 37 -13 75 -30 78 -33 136 -41 115 -15 -33 39 -241 136 -390 181
-41 12 -69 23 -62 23 8 1 39 -6 70 -15z m-1188 -108 c0 -2 -24 -18 -53 -34
-29 -16 -59 -37 -66 -46 -22 -27 34 -20 114 14 38 17 72 30 75 30 3 0 -38 -24
-91 -53 -626 -346 -945 -1037 -799 -1733 63 -301 226 -594 452 -809 196 -187
405 -307 673 -386 55 -16 82 -27 60 -23 -59 9 -207 58 -329 109 -60 25 -122
45 -139 45 l-32 0 49 -35 c71 -50 70 -53 -4 -12 -300 167 -572 465 -704 776
-110 257 -154 511 -135 789 39 556 350 1044 847 1328 80 46 82 47 82 40z m110
-26 c-8 -5 -19 -10 -25 -10 -5 0 -3 5 5 10 8 5 20 10 25 10 6 0 3 -5 -5 -10z
m1250 0 c8 -5 11 -10 5 -10 -5 0 -17 5 -25 10 -8 5 -10 10 -5 10 6 0 17 -5 25
-10z m-1030 -740 c0 -5 -2 -10 -4 -10 -3 0 -8 5 -11 10 -3 6 -1 10 4 10 6 0
11 -4 11 -10z m980 -40 c0 -5 -2 -10 -4 -10 -3 0 -8 5 -11 10 -3 6 -1 10 4 10
6 0 11 -4 11 -10z m-1005 -30 c3 -5 1 -10 -4 -10 -6 0 -11 5 -11 10 0 6 2 10
4 10 3 0 8 -4 11 -10z m336 -130 c6 0 7 5 4 10 -12 19 1 10 26 -17 13 -15 16
-21 7 -14 -10 7 -18 10 -18 7 0 -4 -9 -2 -20 4 -11 6 -20 16 -19 23 0 9 2 9 6
0 2 -7 9 -13 14 -13z m746 -52 c-3 -8 -6 -5 -6 6 -1 11 2 17 5 13 3 -3 4 -12
1 -19z m-755 3 c8 11 9 11 6 1 -4 -16 -22 -18 -24 -2 -2 7 -1 6 3 -1 4 -8 8
-7 15 2z m-77 -31 c3 -18 2 -20 -10 -10 -8 6 -11 18 -8 26 7 18 12 13 18 -16z
m570 20 c3 -5 1 -10 -4 -10 -6 0 -11 5 -11 10 0 6 2 10 4 10 3 0 8 -4 11 -10z
m-648 -46 c1 -16 0 -22 -4 -14 -3 8 -12 23 -20 32 -13 15 -13 16 4 14 12 -2
19 -12 20 -32z m609 0 c1 -9 0 -13 -4 -10 -3 4 -7 14 -8 22 -1 9 0 13 4 10 3
-4 7 -14 8 -22z m201 -16 c-3 -8 -6 -5 -6 6 -1 11 2 17 5 13 3 -3 4 -12 1 -19z
m-267 2 c0 -5 -5 -10 -11 -10 -5 0 -7 5 -4 10 3 6 8 10 11 10 2 0 4 -4 4 -10z
m335 -10 c-7 -12 -32 -13 -39 -2 -2 4 7 9 20 10 15 1 22 -2 19 -8z m-860 -10
c-3 -5 -12 -10 -18 -10 -7 0 -6 4 3 10 19 12 23 12 15 0z m600 0 c4 -6 -1 -7
-12 -4 -16 5 -16 4 1 -10 11 -9 15 -16 9 -16 -5 0 -18 9 -28 20 -18 19 -17 20
3 20 11 0 24 -4 27 -10z m-645 -9 c0 -5 -6 -12 -12 -14 -9 -4 -9 -8 -3 -14 30
-25 36 -41 23 -62 -14 -23 -38 -28 -38 -8 0 8 -4 7 -10 -3 -8 -13 -10 -12 -10
3 0 13 5 17 19 12 22 -7 37 31 15 39 -14 6 -19 38 -7 49 9 10 23 9 23 -2z
m565 -12 c11 -16 1 -19 -13 -3 -7 8 -8 14 -3 14 5 0 13 -5 16 -11z m-415 -9
c0 -5 -5 -10 -11 -10 -5 0 -7 5 -4 10 3 6 8 10 11 10 2 0 4 -4 4 -10z m734
-54 c28 -7 28 -8 24 -62 -5 -64 -12 -71 -85 -80 -68 -8 -75 -3 -67 54 9 62 19
80 49 88 14 3 25 14 25 23 1 14 2 15 13 0 7 -9 25 -19 41 -23z m281 -13 l77
-6 -5 -40 c-3 -22 -9 -43 -14 -48 -5 -5 -37 -12 -71 -15 -50 -6 -62 -10 -62
-25 0 -9 -3 -24 -6 -33 -5 -13 1 -16 30 -16 41 0 55 -20 47 -65 -5 -25 -14
-33 -56 -47 l-50 -16 -21 -116 c-11 -64 -25 -121 -31 -127 -7 -7 -38 -12 -70
-13 l-58 -1 -3 58 c-2 37 -7 57 -14 55 -6 -2 -12 -11 -14 -19 -11 -66 -35 -82
-120 -77 l-49 3 3 37 c2 20 18 108 35 195 l32 158 64 3 c35 2 68 -1 72 -5 5
-5 -1 -63 -13 -131 -12 -67 -19 -125 -15 -128 15 -15 35 20 42 74 16 136 54
315 71 333 19 21 63 24 199 12z m-1659 -27 c3 -7 -6 -81 -21 -162 -31 -177
-38 -245 -25 -224 7 10 10 11 10 3 0 -8 14 -13 34 -13 19 0 38 -5 41 -11 9
-13 -3 -99 -13 -98 -4 1 -9 0 -12 -1 -7 -3 -45 -7 -135 -15 -109 -10 -111 -7
-95 123 6 53 16 115 21 137 4 22 16 81 24 130 21 119 23 125 48 135 36 14 117
12 123 -4z m425 4 c10 -6 19 -17 19 -24 0 -8 8 -13 17 -12 13 1 18 -7 18 -31
0 -18 6 -38 13 -44 9 -10 12 -10 12 1 0 11 4 11 17 -3 16 -15 18 -13 32 31 21
62 64 84 177 90 90 5 120 -5 130 -43 4 -15 11 -22 18 -18 6 4 4 -1 -4 -12 -8
-10 -14 -26 -12 -35 3 -16 -5 -17 -70 -14 -81 3 -98 -5 -98 -47 0 -26 5 -30
46 -40 33 -9 51 -20 63 -41 16 -26 17 -35 4 -100 -33 -175 -45 -188 -175 -187
-45 0 -99 6 -118 12 -31 11 -35 16 -33 45 2 50 20 65 70 59 25 -3 43 0 43 5 0
6 7 5 15 -2 20 -17 32 -5 40 42 7 35 5 37 -21 43 -16 3 -44 13 -61 20 -32 14
-33 17 -33 71 0 55 -1 56 -25 51 -17 -3 -24 0 -22 7 3 6 9 10 15 9 19 -4 6 26
-24 58 -16 18 -23 29 -17 25 9 -5 11 -2 6 9 -13 35 -22 -11 -22 -108 1 -54 -3
-152 -6 -218 -6 -97 -10 -119 -24 -123 -52 -14 -77 -16 -102 -11 -28 6 -29 9
-29 61 0 76 -24 71 -50 -11 -20 -62 -28 -68 -84 -61 -27 3 -54 10 -60 16 -12
12 -17 70 -7 70 4 0 18 35 31 78 13 42 31 95 41 117 9 22 32 87 50 145 18 58
37 111 42 118 12 15 150 17 178 2z m760 0 c14 -8 19 -21 19 -48 0 -50 -12 -65
-50 -64 -22 0 -38 -6 -50 -20 -12 -15 -19 -18 -24 -10 -4 7 -1 12 8 12 9 0 16
5 16 10 0 6 -9 10 -20 10 -11 0 -20 -5 -20 -11 0 -5 -4 -7 -10 -4 -5 3 -7 0
-4 -8 3 -8 1 -18 -5 -22 -7 -4 -7 -10 2 -19 9 -10 14 -11 19 -2 5 7 8 6 8 -4
0 -8 15 -22 33 -30 17 -8 38 -27 47 -42 13 -24 12 -36 -8 -125 -18 -83 -27
-102 -53 -127 -32 -28 -33 -28 -133 -23 -56 2 -109 8 -118 12 -20 8 -23 40 -8
80 10 27 11 27 79 20 l70 -7 10 38 c6 20 8 41 5 46 -3 4 -25 13 -50 19 -66 17
-71 30 -62 145 10 126 29 154 113 175 46 11 164 10 186 -1z m896 -6 c9 -25
-15 -139 -46 -221 -32 -80 -117 -213 -185 -287 -43 -47 -47 -49 -87 -43 -72
10 -76 23 -28 98 24 35 52 81 64 102 l22 38 -19 62 c-11 34 -22 103 -25 154
l-6 92 35 6 c70 13 89 2 104 -60 l7 -30 12 39 c6 21 20 45 30 52 27 20 114 18
122 -2z m-2299 -6 c19 -19 15 -122 -5 -140 -59 -51 -122 -56 -124 -9 0 19 -5
12 -20 -29 -24 -68 -40 -161 -32 -191 6 -20 8 -18 18 16 10 38 13 40 60 46 28
3 58 2 67 -2 15 -8 15 -13 -1 -72 -38 -131 -50 -141 -180 -141 -86 0 -96 8
-107 90 -10 87 13 231 56 348 30 80 59 96 171 96 53 0 90 -5 97 -12z m757 -26
c3 -8 3 -17 0 -20 -3 -3 -5 1 -5 9 0 11 -2 12 -9 1 -6 -11 -9 -9 -13 5 -6 23
18 27 27 5z m-335 -672 c0 -5 -5 -10 -11 -10 -5 0 -7 5 -4 10 3 6 8 10 11 10
2 0 4 -4 4 -10z m-90 -34 c0 -3 -4 -8 -10 -11 -5 -3 -10 -1 -10 4 0 6 5 11 10
11 6 0 10 -2 10 -4z m575 -16 c10 -11 13 -20 7 -20 -7 0 -12 5 -12 10 0 6 -3
9 -7 9 -20 -3 -34 2 -28 11 9 15 20 12 40 -10z m-535 0 c0 -5 -4 -10 -9 -10
-6 0 -13 5 -16 10 -3 6 1 10 9 10 9 0 16 -4 16 -10z m50 -10 c0 -5 -4 -10 -10
-10 -5 0 -10 5 -10 10 0 6 5 10 10 10 6 0 10 -4 10 -10z m523 -34 c-6 -23 -9
-24 -20 -7 -10 16 -9 19 5 17 9 -2 16 -6 15 -10z m-573 -16 c0 -5 -2 -10 -4
-10 -3 0 -8 5 -11 10 -3 6 -1 10 4 10 6 0 11 -4 11 -10z m345 -90 c3 -6 -1 -7
-9 -4 -18 7 -21 14 -7 14 6 0 13 -4 16 -10z m449 1 c3 -5 -1 -11 -9 -15 -15
-6 -29 7 -18 18 9 9 21 8 27 -3z m-45 -50 c8 -5 10 -14 6 -22 -6 -9 -3 -10 11
-5 15 6 16 5 7 -5 -10 -10 -15 -9 -27 1 -9 7 -14 16 -11 20 3 5 -1 11 -7 13
-7 3 -8 6 -3 6 6 0 16 -3 24 -8z m491 -771 c-8 -5 -19 -10 -25 -10 -5 0 -3 5
5 10 8 5 20 10 25 10 6 0 3 -5 -5 -10z m-897 -97 c-7 -2 -21 -2 -30 0 -10 3
-4 5 12 5 17 0 24 -2 18 -5z m60 -10 c-7 -2 -21 -2 -30 0 -10 3 -4 5 12 5 17
0 24 -2 18 -5z m100 -10 c-13 -2 -35 -2 -50 0 -16 2 -5 4 22 4 28 0 40 -2 28
-4z m275 0 c-10 -2 -26 -2 -35 0 -10 3 -2 5 17 5 19 0 27 -2 18 -5z"/>
<path d="M2679 2393 c-13 -15 -12 -15 9 -4 23 12 28 21 13 21 -5 0 -15 -7 -22
-17z"/>
<path d="M2890 2389 c0 -5 -4 -8 -9 -5 -5 3 -12 -1 -15 -10 -11 -29 -6 -34 13
-15 11 11 37 23 58 26 68 11 69 13 11 14 -35 1 -58 -3 -58 -10z"/>
<path d="M2645 2219 c-11 -17 1 -21 15 -4 8 9 8 15 2 15 -6 0 -14 -5 -17 -11z"/>
<path d="M2938 2193 c7 -3 16 -2 19 1 4 3 -2 6 -13 5 -11 0 -14 -3 -6 -6z"/>
<path d="M2599 2033 c-11 -3 -22 -27 -33 -68 -9 -35 -16 -67 -16 -70 0 -3 25
-5 55 -5 50 0 56 2 65 26 12 30 13 44 3 43 -25 -4 -43 4 -58 27 -21 32 -12 43
15 19 20 -18 20 -17 20 8 0 27 -11 31 -51 20z"/>
<path d="M2781 2001 c-8 -5 -11 -16 -7 -29 4 -13 2 -24 -7 -29 -8 -4 -18 -23
-22 -40 l-7 -33 44 0 c55 0 74 15 82 62 6 35 -10 68 -34 68 -5 0 -14 2 -22 5
-7 3 -19 1 -27 -4z"/>
<path d="M2708 1983 c6 -2 18 -2 25 0 6 3 1 5 -13 5 -14 0 -19 -2 -12 -5z"/>
<path d="M1275 2369 c-11 -17 -2 -18 19 -3 17 12 17 14 4 14 -9 0 -20 -5 -23
-11z"/>
<path d="M1200 2151 c-15 -30 -12 -42 16 -72 25 -26 25 -27 5 -22 -11 3 -21
10 -21 16 0 28 -19 -14 -34 -74 -22 -91 -21 -107 9 -115 30 -7 112 3 120 16 3
5 12 7 19 4 8 -3 17 -1 20 4 3 6 15 8 25 5 16 -4 19 -1 14 16 -4 15 -1 21 11
21 9 0 16 7 16 15 0 23 -47 19 -53 -5 -3 -11 -16 -24 -30 -29 -14 -5 -27 -16
-30 -23 -3 -7 -6 -1 -6 13 -1 19 5 28 21 32 12 4 19 9 16 12 -3 4 -15 2 -26
-4 -16 -9 -22 -4 -41 32 -12 23 -16 35 -9 27 15 -17 38 -24 39 -12 0 4 3 18 5
32 9 47 9 85 -1 87 -5 1 -12 11 -17 22 -10 27 -53 28 -68 2z m36 -217 c-5 -13
-4 -14 7 -6 15 13 27 6 27 -15 0 -18 -34 -17 -50 2 -12 15 -6 35 12 35 5 0 7
-7 4 -16z"/>
<path d="M1652 2355 c-17 -36 -15 -41 7 -21 10 9 35 20 56 23 43 7 29 23 -21
23 -23 0 -34 -6 -42 -25z"/>
<path d="M2053 2369 c-18 -5 -33 -12 -33 -14 0 -8 53 6 65 16 10 10 11 10 -32
-2z"/>
<path d="M1980 2335 c-20 -24 -6 -28 15 -5 10 11 13 20 8 20 -6 0 -16 -7 -23
-15z"/>
<path d="M1614 2080 c0 -13 4 -16 10 -10 7 7 7 13 0 20 -6 6 -10 3 -10 -10z"/>
<path d="M1520 2071 c-5 -11 -7 -27 -4 -35 3 -9 1 -16 -5 -16 -14 0 -33 -45
-33 -77 0 -13 -5 -23 -10 -23 -5 0 -8 -10 -6 -22 3 -21 9 -23 58 -23 l54 0 17
55 c9 30 21 56 28 58 16 5 14 22 -4 22 -8 0 -15 8 -15 18 0 11 -11 24 -25 30
-14 6 -25 16 -25 22 0 17 -19 11 -30 -9z"/>
<path d="M1687 2073 c-9 -11 -17 -27 -17 -36 0 -9 -8 -20 -17 -26 -17 -9 -17
-10 0 -17 16 -6 17 -14 11 -60 -6 -53 -6 -54 20 -54 26 0 35 13 16 25 -5 3
-10 11 -10 17 0 5 9 0 21 -13 20 -24 20 -24 9 -1 -7 14 -7 22 -1 22 6 0 13
-11 17 -25 7 -29 13 -30 39 -11 16 12 17 22 12 96 -4 46 -8 85 -11 87 -2 2
-19 6 -37 9 -26 4 -39 1 -52 -13z"/>
<path d="M2101 2061 c-7 -5 -21 -6 -31 -4 -13 3 -21 -4 -29 -28 -15 -42 -14
-50 4 -43 11 5 15 -1 15 -20 0 -34 -51 -64 -70 -41 -6 8 -9 18 -6 23 8 14 -95
24 -111 11 -22 -19 -15 -49 14 -60 15 -6 65 -11 110 -12 77 -2 84 0 109 24 21
22 27 39 31 93 6 68 -1 79 -36 57z"/>
<path d="M1628 2033 c7 -3 16 -2 19 1 4 3 -2 6 -13 5 -11 0 -14 -3 -6 -6z"/>
<path d="M2363 2355 c-29 -12 -54 -42 -53 -62 1 -4 7 4 15 19 9 16 31 32 57
41 24 9 36 16 28 16 -8 0 -29 -6 -47 -14z"/>
<path d="M2396 2042 c-3 -5 -10 -21 -15 -34 -9 -23 -7 -25 10 -21 25 7 26 -28
1 -50 -26 -23 -62 -22 -62 2 0 15 -10 19 -47 24 -54 6 -73 -4 -73 -38 0 -26
12 -31 116 -40 111 -11 150 16 156 109 l3 49 -42 4 c-23 2 -44 0 -47 -5z"/>
<path d="M2350 1940 c-8 -5 -10 -10 -5 -10 6 0 17 5 25 10 8 5 11 10 5 10 -5
0 -17 -5 -25 -10z"/>
<path d="M3353 2363 c-3 -10 -8 -22 -11 -27 -3 -5 9 2 27 15 37 27 37 29 11
29 -11 0 -23 -8 -27 -17z"/>
<path d="M3186 2361 c-4 -5 3 -7 14 -4 23 6 26 13 6 13 -8 0 -17 -4 -20 -9z"/>
<path d="M3108 1908 c-34 -32 -32 -40 12 -43 24 -1 30 2 25 13 -5 13 -3 13 11
2 13 -12 17 -11 25 1 32 51 -24 73 -73 27z"/>
<path d="M970 2353 c-17 -16 -40 -53 -51 -83 -25 -66 -15 -59 21 13 20 41 34
57 70 74 41 20 42 22 18 23 -17 0 -40 -11 -58 -27z"/>
<path d="M935 2210 c-3 -5 -8 -20 -10 -32 -4 -20 -21 -37 -36 -38 -4 0 -10 10
-13 23 -7 21 -7 21 -15 2 -30 -74 -36 -240 -9 -272 17 -21 171 -17 198 5 20
16 66 149 55 160 -3 3 -24 6 -47 6 -39 1 -44 -2 -59 -34 -27 -55 -44 -45 -44
25 0 33 3 84 7 113 6 41 4 52 -7 52 -8 0 -17 -4 -20 -10z m65 -253 c0 -24 -33
-45 -55 -37 -19 8 -19 9 1 9 12 1 27 8 34 16 10 12 7 13 -20 5 -27 -8 -30 -7
-20 5 16 19 60 20 60 2z"/>
</g>
</svg>
